<?xml version="1.0" standalone="no"?><!DOCTYPE svg PUBLIC "-//W3C//DTD SVG 1.1//EN" "http://www.w3.org/Graphics/SVG/1.1/DTD/svg11.dtd"><svg t="1762790062076" class="icon" viewBox="0 0 1092 1024" version="1.1" xmlns="http://www.w3.org/2000/svg" p-id="9880" xmlns:xlink="http://www.w3.org/1999/xlink" width="213.28125" height="200"><path d="M423.070426 120.967033c25.318681 105.494505 85.802198 175.824176 133.626373 236.307692l7.032967 7.032967 73.142857 90.021978 39.384616-105.494505c7.032967-22.505495 15.472527-45.010989 21.098901-70.32967 99.868132 102.681319 168.791209 251.78022 122.373626 434.637362-16.879121 60.483516-52.043956 118.153846-95.648351 149.098901-47.824176 42.197802-130.813187 90.021978-263.032967 90.021978-168.791209 0-257.406593-80.175824-299.604396-128-11.252747-14.065934-22.505495-26.725275-28.131868-39.384615-63.296703-108.307692-73.142857-220.835165-25.318682-316.483517 15.472527 15.472527 32.351648 32.351648 47.824176 45.010989 8.43956 9.846154 19.692308 16.879121 25.318682 22.505495l137.846153 140.659341-26.725274-194.109891c-30.945055-160.351648 47.824176-281.318681 130.813187-361.494505z m52.043956-120.967033C318.982513 105.494505 190.982513 277.098901 219.114382 490.901099c-33.758242-35.164835-98.461538-75.956044-118.153847-140.659341-105.494505 120.967033-133.626374 296.791209-29.538461 469.802198 9.846154 15.472527 22.505495 33.758242 37.978022 50.637363C155.817678 925.538462 264.125371 1024 462.455041 1024c149.098901 0 244.747253-56.263736 306.637363-105.494505 60.483516-45.010989 102.681319-120.967033 120.967033-185.67033C953.35614 490.901099 829.57592 279.912088 659.378118 165.978022c0 57.67033-25.318681 128-37.978022 165.978022-73.142857-85.802198-146.285714-173.010989-146.285714-331.956044z m0 0" fill="#2C2C2C" p-id="9881"></path></svg>