<?xml version="1.0" standalone="no"?><!DOCTYPE svg PUBLIC "-//W3C//DTD SVG 1.1//EN" "http://www.w3.org/Graphics/SVG/1.1/DTD/svg11.dtd"><svg t="1762791094952" class="icon" viewBox="0 0 1210 1024" version="1.1" xmlns="http://www.w3.org/2000/svg" p-id="26145" xmlns:xlink="http://www.w3.org/1999/xlink" width="236.328125" height="200"><path d="M252.090182 409.6c-30.254545 0-50.362182-20.386909-50.362182-51.106909 0-199.493818 156.299636-358.120727 352.907636-358.120727 151.272727 0 287.464727 102.4 337.92 250.693818 5.026909 25.6-5.12 56.32-35.374545 61.44-25.134545 10.24-55.389091-5.12-65.536-30.72a244.084364 244.084364 0 0 0-237.009455-179.106909c-141.125818 0-252.090182 112.64-252.090181 255.813818 0 30.72-20.200727 51.2-50.455273 51.2z" fill="#5F6269" p-id="26146"></path><path d="M907.636364 818.920727c-30.254545 0-50.455273-20.48-50.455273-51.2 0-30.626909 20.200727-51.106909 50.455273-51.106909 110.964364 0 201.728-92.066909 201.728-204.613818 0-112.64-90.763636-204.613818-201.728-204.613818-15.080727 0-35.374545 0-50.455273 5.12-25.134545 5.12-55.389091-10.24-60.509091-35.84-5.026909-25.6 10.146909-56.32 35.374545-61.44 25.134545-5.026909 50.362182-10.24 75.589819-10.24C1073.989818 205.079273 1210.181818 343.226182 1210.181818 512s-136.192 306.920727-302.545454 306.920727zM403.362909 818.920727H252.090182c-30.254545 0-50.362182-20.48-50.362182-51.2 0-30.626909 20.107636-51.106909 50.362182-51.106909h151.272727c30.254545 0 50.455273 20.48 50.455273 51.2 0 30.72-20.200727 51.2-50.455273 51.2z" fill="#5F6269" p-id="26147"></path><path d="M907.636364 818.920727H806.818909c-30.254545 0-50.455273-20.48-50.455273-51.2 0-30.626909 20.200727-51.106909 50.455273-51.106909H907.636364c30.254545 0 50.455273 20.48 50.455272 51.2 0 30.72-20.200727 51.2-50.455272 51.2zM252.090182 818.920727C110.964364 818.920727 0 706.373818 0 563.2c0-143.36 110.964364-255.813818 252.090182-255.813818 30.254545 0 50.455273 20.48 50.455273 51.2 0 30.626909-20.200727 51.106909-50.455273 51.106909-85.643636 0-151.272727 66.466909-151.272727 153.506909 0 86.946909 65.629091 153.413818 151.272727 153.413818 30.254545 0 50.455273 20.48 50.455273 51.2 0 30.72-20.200727 51.2-50.455273 51.2zM605.090909 1023.627636c-30.254545 0-50.455273-20.48-50.455273-51.2V460.8c0-30.72 20.200727-51.2 50.455273-51.2 30.254545 0 50.455273 20.48 50.455273 51.2v511.627636c0 30.72-20.200727 51.2-50.455273 51.2z" fill="#5F6269" p-id="26148"></path><path d="M453.818182 665.506909a45.428364 45.428364 0 0 1-35.374546-15.36 49.989818 49.989818 0 0 1 0-71.68l151.365819-153.413818a48.221091 48.221091 0 0 1 70.562909 0c20.200727 20.48 20.200727 51.2 0 71.68L489.099636 650.053818a45.428364 45.428364 0 0 1-35.281454 15.36z" fill="#5F6269" p-id="26149"></path><path d="M756.363636 665.506909a45.428364 45.428364 0 0 1-35.374545-15.36L569.902545 496.64a49.989818 49.989818 0 0 1 0-71.68 48.221091 48.221091 0 0 1 70.56291 0l151.272727 153.6c20.200727 20.48 20.200727 51.106909 0 71.586909a45.428364 45.428364 0 0 1-35.281455 15.36z" fill="#5F6269" p-id="26150"></path></svg>