<?xml version="1.0" standalone="no"?><!DOCTYPE svg PUBLIC "-//W3C//DTD SVG 1.1//EN" "http://www.w3.org/Graphics/SVG/1.1/DTD/svg11.dtd"><svg t="1762790170770" class="icon" viewBox="0 0 1024 1024" version="1.1" xmlns="http://www.w3.org/2000/svg" p-id="16160" xmlns:xlink="http://www.w3.org/1999/xlink" width="200" height="200"><path d="M512 0c269.312 0 487.619048 220.598857 487.619048 492.690286 0 272.091429-218.307048 492.739048-487.619048 492.739047S24.380952 764.830476 24.380952 492.690286C24.380952 220.598857 242.688 0 512 0z m26.331429 80.749714H485.668571c-204.604952 13.165714-368.347429 178.566095-381.318095 385.316572l-0.048762 53.296762c13.06819 207.823238 178.41981 373.857524 384.536381 385.511619h46.32381c207.238095-11.702857 373.174857-179.44381 384.731428-388.778667 1.024-19.797333 0-38.960762 0-46.811429-11.459048-208.262095-175.835429-375.320381-381.513143-388.534857z m355.620571 364.007619c27.306667 0 49.493333 17.895619 49.493333 39.984762 0 22.040381-22.137905 39.936-49.493333 39.936h-362.983619c-27.306667 0-49.493333-17.895619-49.493333-39.984762 0-22.040381 22.186667-39.936 49.493333-39.936h362.983619zM472.064 102.741333c0-27.306667 17.895619-49.493333 39.936-49.493333 22.040381 0 39.984762 22.186667 39.984762 49.493333v362.983619c0 27.306667-17.944381 49.493333-39.984762 49.493334-22.040381 0-39.984762-22.137905-39.984762-49.493334V102.741333z" fill="#303133" p-id="16161"></path></svg>